<?xml version="1.0" encoding="utf-8"?>
<svg xmlns="http://www.w3.org/2000/svg" height="48px" viewBox="0 -960 960 960" width="48px" fill="#000000">
  <path d="M 172 -45 C 144.147 -45 124.35 -58 112.61 -84 C 100.87 -110 104.667 -133.67 124 -155 L 372 -435 L 372 -705 L 320 -705 C 311.5 -705 304.377 -707.89 298.63 -713.68 C 292.877 -719.46 290 -726.63 290 -735.18 C 290 -743.73 292.877 -750.83 298.63 -756.5 C 304.377 -762.17 311.5 -765 320 -765 L 640 -765 C 648.5 -765 655.627 -762.11 661.38 -756.32 C 667.127 -750.54 670 -743.37 670 -734.82 C 670 -726.27 667.127 -719.17 661.38 -713.5 C 655.627 -707.83 648.5 -705 640 -705 L 588 -705 L 588 -435 L 836 -155 C 855.333 -133.67 859.13 -110 847.39 -84 C 835.65 -58 815.853 -45 788 -45 L 172 -45 Z M 242 -135 L 718 -135 L 558 -320 L 402 -320 L 242 -135 Z M 160 -105 L 800 -105 L 528 -413 L 528 -705 L 432 -705 L 432 -413 L 160 -105 Z M 480 -405 Z"/>
</svg>